<?xml version="1.0" encoding="utf-8"?>
<!-- Generator: Adobe Illustrator 16.0.0, SVG Export Plug-In . SVG Version: 6.00 Build 0)  -->
<!DOCTYPE svg PUBLIC "-//W3C//DTD SVG 1.1 Tiny//EN" "http://www.w3.org/Graphics/SVG/1.1/DTD/svg11-tiny.dtd">
<svg version="1.1" baseProfile="tiny" id="Layer_1" xmlns="http://www.w3.org/2000/svg" xmlns:xlink="http://www.w3.org/1999/xlink"
	 x="0px" y="0px" width="400px" height="150px" viewBox="0 0 400 150" xml:space="preserve">
<g>
	<path d="M0.8,28.9v-3.6c0-0.7,0.5-1.1,1.5-1.1l0.5-0.5v-0.5l14.6-0.5h3.4l5.4-0.5l1.9,0.5l1.4-0.5c1.5,0,3.7,3.1,6.8,9.4
		c4.5,6.2,7.1,10.6,7.8,13.2h0.5c2.5-16.1,4.6-24.2,6.4-24.2l2.4-1.5l2.4,0.5l8.8-1.1c1.3,0,2.8,1.7,4.4,5.2l-0.5,0.5
		c0.9,2.7,1.7,7.9,2.5,15.8l6.3,37.2l-0.5,0.5v0.5l2.4,14.2l-0.5,2.7v8.4c0,2-5.7,4.3-17,6.8c-4.2,0-6.4-3.7-6.4-11
		c0-6.7-1-15.4-2.9-26.2h-0.5c-2,9.4-4.8,14.2-8.2,14.2h-1c-1.7-1.6-5.1-7.5-10.2-17.9H32v1.6c0,11.5,0.8,24.9,2.4,40.4
		c-1.2,1.4-3.5,2.2-6.8,2.6c-12.3-0.5-18.5-2.4-18.5-5.8L5.7,74.6h0.5c-0.7-2.1-1.5-10-2.5-23.6H3.2l0.5-0.5v-0.5
		C3.7,42.9,2.7,35.9,0.8,28.9z M9.6,36.3l0.9,10.5l-0.5,2.1h2.4L12,48.4v-2.6l1-3.7c-2-1-2.9-3.3-2.9-6.8H9.6V36.3z M10.6,58.3h1.9
		v-0.5l-1.9-1V58.3z M11,66.7c0,4.2,0.8,6.3,2.5,6.3c3.9,2.8,5.8,4.7,5.8,5.8h0.5v-1l-8.2-11.6H11V66.7z M12.5,82.5h1l-1-1.1V82.5z
		 M13.5,92.4h0.9v-0.5h-0.9V92.4z M15,105h0.9v-0.5H15V105z M15.5,28.9l1.5,2.6h0.9c0-1.4,1.1-2.1,3.4-2.1l1.9,0.5h0.5v-0.5
		l-3.4-0.5H15.5z M19.8,98.2c1.4,1.9,2.7,4.7,3.9,8.5h1.9L19.8,98.2z M36.3,55.2l2.9,6.3l0.9-1.1c-2.3-2.6-3.4-4.6-3.4-5.8h-0.5
		V55.2z M43.6,76.7h0.5v-1.1h-0.5V76.7z M45.1,64.6l1.5,3.2h0.9l0.5-2.1c-0.6,0-0.9-0.5-0.9-1.6l-0.5-0.5h-1.5V64.6z M49.5,47.8
		c2.3,0,3.9,1.6,4.9,4.7l0.9-1l-3.9-4.2h-1.9V47.8z M51.4,40c1.6,0,2.4,1,2.4,3.1l1.5-0.5l-1.9-3.7v-1.1l1-3.6c-0.7,0-1-0.5-1-1.6
		l-0.5-0.5h-0.5L51.4,40z M53.8,26.3h3v-0.5h-3V26.3z M66,97.2c0.7,0.1,1.7,1.7,3,4.7l1.4-0.5v-0.5l-3.9-4.2v-0.5H66V97.2z"/>
	<path d="M90.2,48.8v-3c0-6.8,4.1-13.6,12.3-20.2c6-3.3,10.8-4.9,14.3-4.9c16.7,0,25,1.3,25,4l2,11.8c0,1.7-5.3,2.7-15.8,3
		c-5.5,0.7-9.4,1.9-11.8,3.4c0,0.9-0.8,1.7-2.4,2.5v0.9c0,4.4,6.7,7.6,20.1,9.4c10.8,3.4,18.3,8.9,22.6,16.2l1,5.9
		c0,9.7-5.4,19.2-16.2,28.6c-9.8,6-21.7,8.9-35.9,8.9h-0.9c-3.8,0-6.7-1.3-8.9-4v-5.4c0-6.6,0.8-10,2.4-10h6.9l2.4-0.5V96l0.5-0.5
		h0.9l0.5,0.5c7.8-1.1,13.7-3.2,17.7-6.4c3.6-4.4,5.4-7.7,5.4-9.9v-3c-1.5-3.6-9.9-6.1-25.1-7.4c-3.6,0-7.5-2.5-11.7-7.4
		C92,57.3,90.2,52.8,90.2,48.8z M97.5,42.1H98l2,1.5v-0.5l-0.5-4.4C98.6,38.6,98,39.8,97.5,42.1z M106.9,49.4l0.5,1.5h0.5v-1.5
		H106.9z M118.2,105.4l0.9,2.5l1.5-0.5l-1.9-2.5h-0.5V105.4z M123.6,65.2l0.5,0.5h0.9l-0.9-1.9h-0.5V65.2z M123.6,99l3.5,7l3-1v-0.5
		l-5-6.5L123.6,99z M124.6,28.3h0.5v-1.5h-0.5V28.3z M130.5,67.7l1.9,0.9v-0.5l-1.5-1.5l-0.5,0.5V67.7z M131.5,94.5
		c1.7,2.7,2.9,5.3,3.4,7.9l2.5-0.9v-0.5l-5-8.3L131.5,94.5z M139.8,79.9l3,3v-0.5l-1-5h-0.5L139.8,79.9z M139.8,91.1l3,4.9l1-1.5
		l-4-4V91.1z M144.7,85.8l1.5,2.5h0.5v-2.5l-2-0.5V85.8z M147.2,71.6l1,1v-0.5l-1-1V71.6z"/>
	<path d="M169,28.4l3.1-3.7h7.8l33.7-3.7l21.7-1.5h3.1l1.5,1.1h3.1c3.5,0.4,5.2,1.1,5.2,2.1l1,11.5c0,4.2-2.8,6.3-8.3,6.3l-15.5,2
		c3.2,15.3,4.7,25.9,4.7,32c0,24.5-2.6,36.8-7.9,36.8l-12.5,2.6h-3c-2.3,0-4.2-11.8-5.5-35.3h0.5l-0.5-0.5v-1.1l1-27.9
		c0-1.7-0.3-2.6-1-2.6l-21.8,4.4l-4.2,0.6c-3.1,0-4.7-3-4.7-8.9L169,28.4z M184.6,43.4h0.5l1-1v-5.1h-0.5L184.6,43.4z M192.5,41.4
		h0.5v-2.1h-0.5V41.4z M199.7,39.8h1.1c0.7,0,1.3-2.4,2-7.3v-0.5h-0.5L199.7,39.8z M202.8,31h0.5l0.5-2.6l-1,1.1V31z M207.7,39.8
		l0.5,0.5h0.5l0.5-4.2v-0.5h-0.5L207.7,39.8z M208.3,48.2l0.5,2.6h0.5v-2.6H208.3z M209.2,35.2h0.5v-1.1h-0.5V35.2z M210.3,28.4h1
		v-0.5h-1V28.4z M210.3,70.1h0.5l7.8-24.7l-0.5-0.5h-0.5l-7.3,24.7V70.1z M210.3,104.4l0.5,2.6h0.5l9.9-27.2c1.4,0,2.1-0.9,2.1-2.7
		l-0.5-4.2h-0.5L210.3,104.4z M215.4,38.8h0.5v-1h-0.5V38.8z M218.6,105.4h0.5c1.4,0,2.5-2.5,3.2-7.4h-1.1L218.6,105.4z M231.3,34.7
		h0.5v-2.1h-0.5V34.7z M231.8,25.6l0.5,3.3h0.5l0.5-2.7v-0.6H231.8z M238.6,34.1l3.1-0.5l-0.5-7.3h-0.5L238.6,34.1z"/>
	<path d="M260.6,23.5c0-2.4,1.5-3.8,4.4-4.1c1.6,0.7,2.4,1.7,2.4,3l3-1.2l18.9,1.8l15.4-0.6c7.8,0.9,12.2,3.7,13,8.4l0.5,3
		c0,2.5-3.2,8.4-9.5,17.9c9.3,4.2,13.9,10.2,13.9,17.8v5.5c0,4.8-2.8,11.7-8.5,20.8c-11.9,13.1-23.2,19.6-34,19.6
		c-4.7,0-7-4.9-7-14.7c1.2-2.1,2.7-3.1,4.5-3.1c12.3-3.1,18.5-10,18.5-20.8v-3l-0.5-7.4l-19,2.5c-1.6,0-3.1-1.2-4.5-3.7v-1.2
		c1.7-3.6,6.4-10.5,14-20.8l-4-0.6l-11.5,0.6c-5.9,0-8.9-2.4-8.9-7.1L260.6,23.5z M268.9,34.5h1l-1-1.2V34.5z M274,34.5h1v-1.8h-0.5
		L274,34.5z M286.9,102.5c0,2,0.3,3,1,3l1.5-0.6v-1.8l-0.5-0.6v-0.6L286.9,102.5z M287.9,33.9l0.5,0.6h0.5v-0.6l-0.5-3.6h-0.5V33.9z
		 M289.4,52.3l1,3h0.5v-0.6l-0.5-3l-0.5,0.6H289.4z M290.9,58.4h0.5v-2.5h-0.5V58.4z M293.9,98.8l0.5,3.1h1l-0.5-3.7h-1V98.8z
		 M299.4,92.7l1.5,4.9l1.5-0.6l-1-6.1h-0.5L299.4,92.7z M300.9,59.7l1,1.2h1l-1-1.2H300.9z M301.9,47.4h1v-0.6h-1V47.4z M302.4,59.1
		h0.5v-1.2h-0.5V59.1z M302.9,65.7h1v-0.6l-1-1.2V65.7z M304.4,29.7c1.7,4.5,2.5,7.7,2.5,9.8h0.5v-1.8
		C307.1,32.3,306.1,29.7,304.4,29.7z"/>
	<path d="M336,23.4c1.3-2.4,2.9-3.6,4.7-3.6l4.8,1.5h1.6l3.2-0.5l0.6,0.5h0.5l2.7-0.5c2.5,0,3.7,1.5,3.7,4.6v9l0.6,5.1h-0.6l0.6,0.5
		v2l0.5,7.6h0.6c3.4-17.8,9.4-26.7,17.9-26.7l1.7-0.5l2.8,0.5h4l2.8-0.5l1.7,2v2l-5,13.1c0,1.5-2.8,10.8-8.4,27.7v2
		c0,0.8,1.9,3.2,5.6,7.1c10.5,15.3,15.7,24.2,15.7,26.7c0,2-5.8,4.2-17.4,6.6h-2.3c-1.7-0.8-5.8-7-12.3-18.7c-0.6,0-1.4-1-2.3-3
		h-0.5v15.6l0.5,5.6l-0.5,1.6l0.5,0.5c-1.2,2-4.5,3-9.8,3l-0.6,0.5c-9.4-0.6-14.1-1.8-14.1-3.6v-7.6l-1.8-25.2l-0.6-1.5l0.6-1.5
		l-0.6-1.5h0.6l-0.5-0.5v-3l0.5-7l-0.6-0.5v-0.5l0.6-0.5l-0.6-3.6l0.6-15.6l-0.6-1.5l0.6-0.5V40L336,23.4z M345,60.3l0.5-0.5h2.7
		l1.6,1v-0.5c-2.3-3-3.9-4.6-4.9-4.6V60.3z M345,68.8l3.8,1.5v-0.5l-3.8-3.6V68.8z M345,79.4h2.2v-0.5l-1.6-1.5H345V79.4z M345.5,34
		h1.1v-1h-1.1V34z M346,96.6h1.1l-1.1-1V96.6z M346,107.2h1.6l-1.6-1.5V107.2z M354.7,104.2c0.9,2.4,1.6,3.6,2.2,3.6v-4.1h-2.2
		V104.2z M356.3,89.5h0.6v-1h-0.6V89.5z M360.1,74.3l1.1,1.1v-1.1H360.1z M361.3,63.8l1.1,1l0.6-0.5v-1h-1.7V63.8z M366.3,49.6h0.5
		v-1h-0.5V49.6z M368,80.4l2.3,4h0.5c0-1,0.6-1.5,1.7-1.5c-0.1-0.6-1.6-1.6-4.5-3V80.4z M385.9,99.1c1.1,0,1.7,0.5,1.7,1.5l0.5,0.5
		h1.7v-0.5l-3.4-2h-0.5V99.1z"/>
</g>
<g>
</g>
<g>
</g>
<g>
</g>
<g>
</g>
<g>
</g>
<g>
</g>
<g>
</g>
<g>
</g>
<g>
</g>
<g>
</g>
<g>
</g>
<g>
</g>
<g>
</g>
<g>
</g>
<g>
</g>
</svg>
